PathFileType	4	(X/Y/Z)	 2.2Hzhigh3min.trc
DataRate	CameraRate	NumFrames	NumMarkers	Units	OrigDataRate	OrigDataStartFrame	OrigNumFrames
200	200	8	43	m	200	376	1000
Frame#	Time	C7			LSH			RSH			MAN			RASI			LASI			HIPR			HIPL			RPSI			LPSI			COX			RTHI1			RTHI2			RTHI3			RTHI4			RLKN			RMKN			RSHA1			RSHA2			RSHA3			RSHA4			RLMAL			RMMAL			RHEEL			RMET5			RMET1			RTOE			LTHI1			LTHI2			LTHI3			LTHI4			LLKN			LMKN			LSHA1			LSHA2			LSHA3			LSHA4			LLMAL			LMMAL			LHEEL			LMET5			LMET1			LTOE			
		X1	Y1	Z1	X2	Y2	Z2	X3	Y3	Z3	X4	Y4	Z4	X5	Y5	Z5	X6	Y6	Z6	X7	Y7	Z7	X8	Y8	Z8	X9	Y9	Z9	X10	Y10	Z10	X11	Y11	Z11	X12	Y12	Z12	X13	Y13	Z13	X14	Y14	Z14	X15	Y15	Z15	X16	Y16	Z16	X17	Y17	Z17	X18	Y18	Z18	X19	Y19	Z19	X20	Y20	Z20	X21	Y21	Z21	X22	Y22	Z22	X23	Y23	Z23	X24	Y24	Z24	X25	Y25	Z25	X26	Y26	Z26	X27	Y27	Z27	X28	Y28	Z28	X29	Y29	Z29	X30	Y30	Z30	X31	Y31	Z31	X32	Y32	Z32	X33	Y33	Z33	X34	Y34	Z34	X35	Y35	Z35	X36	Y36	Z36	X37	Y37	Z37	X38	Y38	Z38	X39	Y39	Z39	X40	Y40	Z40	X41	Y41	Z41	X42	Y42	Z42	X43	Y43	Z43	
376	1.8800	-0.290417	1.513043	-0.505189	-0.217443	1.504266	-0.666914	-0.218051	1.485652	-0.359232	-0.167843	1.448555	-0.513056	-0.168680	1.020930	-0.400811	-0.172328	1.025774	-0.645043	-0.215329	1.081713	-0.380971	-0.220568	1.092953	-0.664100	-0.326759	1.065974	-0.489139	-0.330527	1.063794	-0.553571	-0.333314	1.061328	-0.521923	-0.273934	0.843656	-0.344061	-0.259230	0.785683	-0.340905	-0.196030	0.797747	-0.335341	-0.202320	0.859152	-0.337739	-0.251521	0.592858	-0.356409	-0.228486	0.573132	-0.478164	-0.334470	0.436330	-0.361903	-0.331500	0.395419	-0.368193	-0.284192	0.389637	-0.340380	-0.279669	0.433473	-0.335794	-0.301476	0.242137	-0.362645	-0.269863	0.242562	-0.434373	-0.346255	0.237335	-0.406717	-0.224828	0.143664	-0.333369	-0.185599	0.144678	-0.392283	-0.164433	0.130519	-0.386481	-0.283868	0.857424	-0.699633	-0.267499	0.798138	-0.703828	-0.203760	0.810205	-0.711505	-0.212855	0.869527	-0.708925	-0.249416	0.578655	-0.691555	-0.230663	0.576757	-0.572888	-0.335376	0.405657	-0.683808	-0.338063	0.366040	-0.673886	-0.282034	0.361119	-0.699350	-0.285498	0.404560	-0.705610	-0.309572	0.245680	-0.683191	-0.290754	0.243861	-0.608203	-0.356649	0.254518	-0.632145	-0.254347	0.135482	-0.690077	-0.221295	0.134589	-0.628031	-0.205000	0.117852	-0.631396	
377	1.8850	-0.290397	1.511077	-0.505108	-0.217383	1.502222	-0.666783	-0.217926	1.483498	-0.359156	-0.167839	1.446363	-0.512986	-0.168843	1.018865	-0.401175	-0.172631	1.023917	-0.645275	-0.215595	1.079470	-0.381224	-0.221025	1.091019	-0.664381	-0.327110	1.063607	-0.489332	-0.330885	1.061517	-0.553791	-0.333680	1.058999	-0.522134	-0.273415	0.841363	-0.344126	-0.258556	0.783439	-0.340959	-0.195366	0.795668	-0.335738	-0.201818	0.857058	-0.338181	-0.250676	0.590699	-0.356236	-0.227929	0.570809	-0.478026	-0.334543	0.434667	-0.361620	-0.331818	0.393770	-0.367899	-0.284534	0.387710	-0.340138	-0.279745	0.431477	-0.335628	-0.302774	0.240393	-0.362389	-0.271162	0.240574	-0.434187	-0.347554	0.235591	-0.406445	-0.226278	0.142180	-0.332780	-0.187083	0.142876	-0.391698	-0.165938	0.128882	-0.385802	-0.283221	0.855510	-0.700148	-0.266824	0.796232	-0.704316	-0.203067	0.808319	-0.711826	-0.212190	0.867625	-0.709252	-0.248593	0.576653	-0.692090	-0.229989	0.574637	-0.573443	-0.335540	0.404196	-0.683991	-0.338437	0.364611	-0.674041	-0.282484	0.359343	-0.699629	-0.285708	0.402775	-0.705898	-0.310640	0.244020	-0.683316	-0.291809	0.242155	-0.608277	-0.357703	0.252927	-0.632230	-0.255519	0.133867	-0.690180	-0.222534	0.132948	-0.628085	-0.206256	0.116256	-0.631541	
378	1.8900	-0.290408	1.508842	-0.505039	-0.217396	1.499916	-0.666680	-0.217839	1.481103	-0.359100	-0.167876	1.443933	-0.512936	-0.169017	1.016562	-0.401540	-0.172915	1.021799	-0.645479	-0.215844	1.077002	-0.381467	-0.221441	1.088852	-0.664673	-0.327435	1.061082	-0.489542	-0.331208	1.059078	-0.554036	-0.334019	1.056511	-0.522365	-0.272932	0.838845	-0.344227	-0.257907	0.780969	-0.341025	-0.194734	0.793375	-0.336134	-0.201362	0.854751	-0.338642	-0.249764	0.588300	-0.356060	-0.227362	0.568264	-0.477889	-0.334595	0.432803	-0.361337	-0.332145	0.391866	-0.367603	-0.284867	0.385565	-0.339871	-0.279791	0.429265	-0.335439	-0.304251	0.238485	-0.362139	-0.272543	0.238355	-0.434016	-0.348931	0.233647	-0.406193	-0.227821	0.140525	-0.332226	-0.188664	0.140858	-0.391197	-0.167516	0.127004	-0.385189	-0.282540	0.853330	-0.700654	-0.266090	0.794081	-0.704858	-0.202320	0.806208	-0.712136	-0.211481	0.865500	-0.709517	-0.247749	0.574386	-0.692649	-0.229325	0.572194	-0.574019	-0.335697	0.402487	-0.684199	-0.338815	0.362928	-0.674221	-0.282930	0.357317	-0.699933	-0.285909	0.400732	-0.706206	-0.311755	0.242124	-0.683460	-0.292956	0.240251	-0.608365	-0.358822	0.251109	-0.632344	-0.256732	0.132032	-0.690270	-0.223839	0.131115	-0.628155	-0.207575	0.114474	-0.631675	
379	1.8950	-0.290444	1.506340	-0.504983	-0.217476	1.497345	-0.666603	-0.217795	1.478467	-0.359068	-0.167943	1.441266	-0.512905	-0.169204	1.014022	-0.401902	-0.173182	1.019423	-0.645655	-0.216075	1.074319	-0.381705	-0.221810	1.086459	-0.664971	-0.327737	1.058399	-0.489775	-0.331505	1.056484	-0.554302	-0.334332	1.053865	-0.522620	-0.272490	0.836107	-0.344365	-0.257284	0.778279	-0.341110	-0.194137	0.790868	-0.336524	-0.200951	0.852233	-0.339122	-0.248784	0.585655	-0.355881	-0.226779	0.565498	-0.477749	-0.334622	0.430737	-0.361054	-0.332494	0.389709	-0.367302	-0.285185	0.383209	-0.339587	-0.279807	0.426833	-0.335246	-0.305790	0.236340	-0.361903	-0.274004	0.235927	-0.433876	-0.350393	0.231521	-0.405969	-0.229391	0.138644	-0.331706	-0.190330	0.138603	-0.390738	-0.169184	0.124865	-0.384624	-0.281837	0.850887	-0.701156	-0.265308	0.791670	-0.705447	-0.201526	0.803879	-0.712440	-0.210753	0.863157	-0.709725	-0.246886	0.571853	-0.693234	-0.228674	0.569451	-0.574619	-0.335853	0.400522	-0.684441	-0.339208	0.360991	-0.674429	-0.283387	0.355028	-0.700248	-0.286111	0.398437	-0.706533	-0.312937	0.239993	-0.683609	-0.294155	0.238126	-0.608460	-0.360019	0.249058	-0.632488	-0.257948	0.130024	-0.690370	-0.225169	0.129093	-0.628189	-0.208926	0.112523	-0.631782	
380	1.9000	-0.290499	1.503578	-0.504949	-0.217617	1.494503	-0.666553	-0.217799	1.475587	-0.359059	-0.168036	1.438362	-0.512893	-0.169408	1.011258	-0.402256	-0.173434	1.016789	-0.645807	-0.216299	1.071427	-0.381939	-0.222128	1.083836	-0.665268	-0.328018	1.055553	-0.490031	-0.331779	1.053717	-0.554601	-0.334623	1.051049	-0.522898	-0.272085	0.833141	-0.344554	-0.256689	0.775374	-0.341219	-0.193571	0.788161	-0.336906	-0.200586	0.849506	-0.339614	-0.247733	0.582774	-0.355706	-0.226163	0.562510	-0.477596	-0.334636	0.428467	-0.360785	-0.332856	0.387350	-0.367010	-0.285509	0.380644	-0.339311	-0.279764	0.424168	-0.335047	-0.307346	0.234000	-0.361695	-0.275551	0.233303	-0.433771	-0.351966	0.229251	-0.405835	-0.231049	0.136561	-0.331233	-0.192063	0.136132	-0.390330	-0.170918	0.122487	-0.384142	-0.281138	0.848175	-0.701653	-0.264489	0.789005	-0.706075	-0.200703	0.801334	-0.712738	-0.210032	0.860593	-0.709879	-0.246002	0.569051	-0.693845	-0.228034	0.566426	-0.575240	-0.336019	0.398313	-0.684718	-0.339625	0.358815	-0.674669	-0.283865	0.352471	-0.700567	-0.286322	0.395887	-0.706873	-0.314148	0.237633	-0.683776	-0.295446	0.235782	-0.608569	-0.361315	0.246808	-0.632685	-0.259169	0.127815	-0.690468	-0.226536	0.126882	-0.628201	-0.210289	0.110395	-0.631847	
381	1.9050	-0.290568	1.500559	-0.504937	-0.217806	1.491385	-0.666530	-0.217854	1.472465	-0.359071	-0.168147	1.435222	-0.512896	-0.169626	1.008266	-0.402605	-0.173673	1.013903	-0.645939	-0.216517	1.068335	-0.382174	-0.222390	1.080983	-0.665555	-0.328281	1.052539	-0.490310	-0.332031	1.050775	-0.554920	-0.334892	1.048061	-0.523203	-0.271714	0.829953	-0.344799	-0.256113	0.772249	-0.341360	-0.193030	0.785252	-0.337279	-0.200262	0.846569	-0.340111	-0.246618	0.579661	-0.355533	-0.225480	0.559299	-0.477437	-0.334647	0.425993	-0.360540	-0.333186	0.384858	-0.366715	-0.285790	0.377847	-0.339062	-0.279699	0.421293	-0.334840	-0.308888	0.231426	-0.361532	-0.277173	0.230474	-0.433714	-0.353675	0.226809	-0.405757	-0.232757	0.134243	-0.330850	-0.193869	0.133429	-0.389991	-0.172729	0.119864	-0.383714	-0.280458	0.845193	-0.702147	-0.263652	0.786082	-0.706727	-0.199866	0.798573	-0.713031	-0.209338	0.857804	-0.709990	-0.245100	0.565982	-0.694476	-0.227396	0.563140	-0.575887	-0.336200	0.395867	-0.685035	-0.340080	0.356399	-0.674939	-0.284374	0.349651	-0.700888	-0.286544	0.393077	-0.707230	-0.315449	0.235062	-0.683922	-0.296810	0.233207	-0.608672	-0.362701	0.244291	-0.632889	-0.260391	0.125446	-0.690581	-0.227952	0.124486	-0.628238	-0.211685	0.108137	-0.631926	
382	1.9100	-0.290646	1.497285	-0.504944	-0.218031	1.487988	-0.666532	-0.217957	1.469094	-0.359101	-0.168274	1.431841	-0.512910	-0.169861	1.005049	-0.402947	-0.173903	1.010760	-0.646054	-0.216737	1.065043	-0.382408	-0.222601	1.077896	-0.665829	-0.328532	1.049349	-0.490614	-0.332266	1.047651	-0.555260	-0.335143	1.044896	-0.523532	-0.271377	0.826537	-0.345093	-0.255552	0.768897	-0.341536	-0.192512	0.782140	-0.337638	-0.199977	0.843426	-0.340605	-0.245442	0.576319	-0.355367	-0.224709	0.555863	-0.477272	-0.334578	0.423304	-0.360289	-0.333498	0.382189	-0.366420	-0.286046	0.374818	-0.338854	-0.279599	0.418197	-0.334659	-0.310391	0.228675	-0.361466	-0.278865	0.227436	-0.433721	-0.355411	0.224159	-0.405607	-0.234511	0.131748	-0.330524	-0.195748	0.130516	-0.389714	-0.174614	0.117003	-0.383370	-0.279808	0.841940	-0.702632	-0.262810	0.782896	-0.707388	-0.199036	0.795588	-0.713314	-0.208684	0.854789	-0.710070	-0.244173	0.562650	-0.695132	-0.226753	0.559613	-0.576561	-0.336404	0.393199	-0.685398	-0.340580	0.353745	-0.675234	-0.284923	0.346568	-0.701208	-0.286781	0.390018	-0.707607	-0.316791	0.232276	-0.684097	-0.298271	0.230438	-0.608779	-0.364192	0.241566	-0.633128	-0.261630	0.122919	-0.690717	-0.229404	0.121897	-0.628294	-0.213093	0.105716	-0.632008	
383	1.9150	-0.290733	1.493757	-0.504972	-0.218281	1.484311	-0.666559	-0.218100	1.465475	-0.359142	-0.168408	1.428213	-0.512934	-0.170116	1.001610	-0.403280	-0.174124	1.007358	-0.646161	-0.216960	1.061551	-0.382645	-0.222760	1.074576	-0.666082	-0.328775	1.045976	-0.490942	-0.332491	1.044339	-0.555622	-0.335382	1.041543	-0.523884	-0.271066	0.822887	-0.345434	-0.255002	0.765325	-0.341749	-0.192012	0.778824	-0.337977	-0.199725	0.840072	-0.341091	-0.244208	0.572745	-0.355204	-0.223844	0.552195	-0.477099	-0.334463	0.420402	-0.360032	-0.333790	0.379380	-0.366133	-0.286276	0.371561	-0.338700	-0.279464	0.414871	-0.334510	-0.311846	0.225701	-0.361442	-0.280613	0.224233	-0.433794	-0.357175	0.221350	-0.405476	-0.236335	0.128976	-0.330255	-0.197676	0.127361	-0.389500	-0.176570	0.113896	-0.383111	-0.279199	0.838417	-0.703111	-0.261980	0.779447	-0.708044	-0.198223	0.792378	-0.713583	-0.208089	0.851532	-0.710119	-0.243220	0.559054	-0.695805	-0.226086	0.555862	-0.577261	-0.336637	0.390306	-0.685811	-0.341126	0.350878	-0.675563	-0.285516	0.343244	-0.701533	-0.287050	0.386718	-0.708003	-0.318220	0.229270	-0.684267	-0.299810	0.227437	-0.608879	-0.365752	0.238597	-0.633372	-0.262890	0.120211	-0.690869	-0.230888	0.119136	-0.628353	-0.214518	0.103122	-0.632100	
